{"title":"The Woman Knight Of Mirror Lake 2011 720p BDRip XviD ac3 (avi) [","uid":7046956,"size":4011889137,"categoryP":"video","categoryS":"hd___movies","magnet":"?xt=urn:btih:5648bcb547786e1cf815b49707e6c60fcaca126c&amp;dn=The+Woman+Knight+Of+Mirror+Lake+2011+720p+BDRip+XviD+ac3+%28avi%29+%5B&amp;tr=udp%3A%2F%2Ftracker.openbittorrent.com%3A80&amp;tr=udp%3A%2F%2Fopen.demonii.com%3A1337&amp;tr=udp%3A%2F%2Ftracker.coppersurfer.tk%3A6969&amp;tr=udp%3A%2F%2Fexodus.desync.com%3A6969","seeders":2,"leechers":0,"uploader":"grey.shadow","files":4,"time":1329785560,"description":"***************************************************************\n\n[IMG]http://www.hotimg.org/images/67363952943939111394.png[/IMG]\n\n***************************************************************\n\n[IMG]http://www.hotimg.org/images/81445830513695401776.jpg[/IMG]\n\n***************************************************************\n\nFILM TITLE: The Woman Knight of Mirror Lake (2011)\n\n***************************************************************\n\nGenre:  Drama    \n\nRelease:   13 October 2011 (Hong Kong)\n\nDirector: Herman Yau\n\nWriter: Erica Lee\n\nStars: Kevin Cheng, Pat Ha and Yi Huang\n\nCountry: Hong Kong\n\nLanguage: Mandarin | Cantonese \n\nPlot:\nWhen the women of her time had their feet bound to please men, \nQiu Jin (Crystal Huang) was already questioning the sexual inequality \nof feudal traditions. Free-spirited and well-educated, she grew up \npracticing martial arts and was as well versed in poetry as she was \nin sword-fighting. When this rebellious girl moved to Beijing with \nher husband (Kevin Cheng), she witnessed how her country was raided \nand ravaged by foreign powers.\n\nIMDB Rating: 6.1/10 from 82 users  \n &lt;a href=&quot;\nhttp://www.imdb.com/title/tt1993428/&quot; rel=&quot;nofollow&quot; target=&quot;_NEW&quot;&gt;\nhttp://www.imdb.com/title/tt1993428/&lt;/a&gt;\n\n****************************************************************\n\n[URL=http://www.hotimg.org/viewer.php?file=77060461001727909539.png][IMG]http://www.hotimg.org/images/77060461001727909539_thumb.png[/IMG][/URL]\n[URL=http://www.hotimg.org/viewer.php?file=52273203579545980737.png][IMG]http://www.hotimg.org/images/52273203579545980737_thumb.png[/IMG][/URL]\n[URL=http://www.hotimg.org/viewer.php?file=14887076468182710889.png][IMG]http://www.hotimg.org/images/14887076468182710889_thumb.png[/IMG][/URL]\n[URL=http://www.hotimg.org/viewer.php?file=66467187166106957061.png][IMG]http://www.hotimg.org/images/66467187166106957061_thumb.png[/IMG][/URL]\n[URL=http://www.hotimg.org/viewer.php?file=10182835352428238871.png][IMG]http://www.hotimg.org/images/10182835352428238871_thumb.png[/IMG][/URL]\n\n****************************************************************\n\nGeneral\nComplete name                    : The Woman Night Of Mirror Lake 2011 720p BDRip XviD ac3 (avi) [GREYSHADOW].avi\nFormat                           : AVI\nFormat/Info                      : Audio Video Interleave\nFormat profile                   : OpenDML\nFile size                        : 3.70 GiB\nDuration                         : 1h 54mn\nOverall bit rate                 : 4645 Kbps\nWriting library                  : VirtualDub build 32842/release\n\nVideo\nID                               : 0\nFormat                           : MPEG-4 Visual\nFormat profile                   : Simple@L5\nFormat settings, BVOP            : No\nFormat settings, QPel            : No\nFormat settings, GMC             : No warppoints\nFormat settings, Matrix          : Default (H.263)\nCodec ID                         : XVID\nCodec ID/Hint                    : XviD\nDuration                         : 1h 54mn\nBit rate                         : 3996 Kbps\nWidth                            : 1280 pixels\nHeight                           : 544 pixels\nDisplay aspect ratio             : 2.35:1\nFrame rate                       : 24.000 fps\nColor space                      : YUV\nChroma subsampling               : 4:2:0\nBit depth                        : 8 bits\nScan type                        : Progressive\nCompression mode                 : Lossy\nBits/(Pixel*Frame)               : 0.239\nStream size                      : 3.18 GiB (86%)\nWriting library                  : XviD 64\n\nAudio\nID                               : 1\nFormat                           : AC-3\nFormat/Info                      : Audio Coding 3\nMode extension                   : CM (complete main)\nCodec ID                         : 2000\nDuration                         : 1h 54mn\nBit rate mode                    : Constant\nBit rate                         : 640 Kbps\nChannel(s)                       : 6 channels\nChannel positions                : Front: L C R, Side: L R, LFE\nSampling rate                    : 48.0 KHz\nBit depth                        : 16 bits\nCompression mode                 : Lossy\nStream size                      : 522 MiB (14%)\nAlignment                        : Aligned on interleaves\nInterleave, duration             : 42 ms (1.00 video frame)\nInterleave, preload duration     : 512 ms\n\n****************************************************************\n\nVideo Source: The Woman Knight Of Mirror Lake 2011 BluRay 1080p AVC DTS-HD MA-HDChina (21.4GB)\n\nThanks: chdbits.org\n\n****************************************************************\n\nI provide a small sample, so please download this to check your \ncompatibility first if you are unsure.\n\n****************************************************************","torrent":{"xt":"urn:btih:5648bcb547786e1cf815b49707e6c60fcaca126c","amp;dn":"The+Woman+Knight+Of+Mirror+Lake+2011+720p+BDRip+XviD+ac3+%28avi%29+%5B","amp;tr":["udp%3A%2F%2Ftracker.openbittorrent.com%3A80","udp%3A%2F%2Fopen.demonii.com%3A1337","udp%3A%2F%2Ftracker.coppersurfer.tk%3A6969","udp%3A%2F%2Fexodus.desync.com%3A6969"],"infoHash":"5648bcb547786e1cf815b49707e6c60fcaca126c","infoHashBuffer":{"type":"Buffer","data":[86,72,188,181,71,120,110,28,248,21,180,151,7,230,198,15,202,202,18,108]},"announce":[],"urlList":[]}}